<?xml version="1.0" encoding="UTF-8"?>
<!DOCTYPE svg PUBLIC "-//W3C//DTD SVG 1.1//EN" "http://www.w3.org/Graphics/SVG/1.1/DTD/svg11.dtd">
<!-- Creator: CorelDRAW X7 -->
<svg xmlns="http://www.w3.org/2000/svg" xml:space="preserve" width="355.6mm" height="76.2mm" version="1.1" style="shape-rendering:geometricPrecision; text-rendering:geometricPrecision; image-rendering:optimizeQuality; fill-rule:evenodd; clip-rule:evenodd"
viewBox="0 0 35560 7620"
 xmlns:xlink="http://www.w3.org/1999/xlink">
 <defs>
  <style type="text/css">
   <![CDATA[
    .fil0 {fill:black}
    .fil1 {fill:black;fill-rule:nonzero}
   ]]>
  </style>
 </defs>
 <g id="Layer_x0020_1">
  <metadata id="CorelCorpID_0Corel-Layer"/>
  <path class="fil0" d="M1066 1391l4851 0 0 749 -4851 0 0 -749zm-923 -1296l6838 0 0 7200 -6978 0 0 -7200 140 0zm6557 280l-6417 0 0 6640 6417 0 0 -6640zm-5634 2945l3728 0 0 750 -3728 0 0 -750zm0 1930l4851 0 0 749 -4851 0 0 -749zm4102 -1930l749 0 0 750 -749 0 0 -750z"/>
  <path class="fil1" d="M23809 7241l0 -602 -1670 0 0 -647 1451 0 0 -602 -1451 0 0 -624 1648 0 0 -602 -2316 0 0 3077 2338 0zm-2927 -910l0 -9c0,-135 -21,-250 -64,-347 -42,-97 -106,-181 -189,-253 -84,-72 -187,-133 -309,-184 -121,-52 -261,-98 -417,-139 -132,-35 -241,-66 -328,-92 -86,-27 -154,-54 -205,-84 -50,-29 -84,-62 -103,-99 -19,-36 -29,-79 -29,-129l0 -9c0,-76 33,-140 99,-191 66,-52 165,-77 297,-77 132,0 263,27 395,81 132,54 267,128 405,222l351 -510c-158,-126 -332,-222 -521,-290 -188,-67 -396,-101 -621,-101 -159,0 -304,22 -435,66 -131,44 -245,107 -339,189 -94,82 -168,179 -220,292 -53,113 -79,240 -79,380l0 9c0,153 24,280 73,383 48,102 117,188 205,257 88,69 195,126 321,173 127,47 268,90 424,128 129,32 234,63 315,92 80,29 143,59 189,88 46,29 77,61 93,95 16,33 24,72 24,116l0 9c0,91 -39,162 -117,213 -77,51 -186,77 -327,77 -176,0 -338,-34 -486,-101 -148,-68 -292,-158 -433,-273l-400 479c185,167 390,291 616,372 225,80 455,121 690,121 167,0 319,-22 456,-64 137,-43 256,-104 355,-185 99,-80 176,-180 231,-299 55,-118 83,-254 83,-406zm-2914 -431l0 -1736 -677 0 0 1763c0,246 -58,430 -176,553 -117,123 -280,185 -488,185 -208,0 -370,-64 -487,-191 -118,-128 -176,-317 -176,-569l0 -1741 -677 0 0 1758c0,454 119,796 356,1024 237,229 562,343 976,343 205,0 391,-28 558,-86 167,-57 309,-143 426,-259 117,-116 207,-260 271,-433 62,-173 94,-376 94,-611zm-3943 -189c0,132 -22,256 -68,372 -45,115 -108,217 -189,305 -80,88 -178,157 -292,207 -114,49 -239,74 -374,74 -137,0 -263,-25 -375,-77 -113,-51 -211,-121 -295,-208 -83,-88 -148,-191 -193,-308 -46,-117 -68,-242 -68,-374l0 -8c0,-132 22,-256 68,-372 45,-116 108,-217 189,-305 80,-88 177,-157 290,-207 113,-50 238,-75 376,-75 134,0 259,26 373,77 114,52 213,121 297,209 83,88 148,191 193,308 46,117 68,242 68,373l0 9zm708 -9l0 -8c0,-220 -40,-426 -121,-618 -80,-192 -193,-359 -338,-501 -145,-142 -317,-255 -517,-338 -199,-84 -417,-126 -655,-126 -237,0 -456,42 -657,126 -200,83 -373,197 -518,342 -145,145 -259,314 -341,506 -82,192 -123,398 -123,617l0 9c0,220 40,426 121,618 80,192 193,359 338,501 145,142 317,255 517,338 199,84 417,125 655,125 237,0 456,-41 657,-125 200,-83 373,-198 518,-343 145,-145 259,-313 341,-505 82,-192 123,-398 123,-618zm-3872 1539l0 -3077 -677 0 0 1217 -1248 0 0 -1217 -677 0 0 3077 677 0 0 -1235 1248 0 0 1235 677 0z"/>
  <path class="fil1" d="M35316 3225l0 -3077 -668 0 0 1895 -1441 -1895 -625 0 0 3077 669 0 0 -1956 1490 1956 575 0zm-4043 -1529c0,131 -23,255 -68,371 -46,116 -109,218 -190,305 -80,88 -178,157 -292,207 -114,50 -239,75 -373,75 -138,0 -263,-26 -376,-77 -113,-51 -211,-121 -295,-209 -83,-88 -148,-190 -193,-308 -46,-117 -68,-241 -68,-373l0 -9c0,-132 22,-256 68,-371 45,-116 108,-218 189,-306 81,-88 177,-157 290,-206 113,-50 238,-75 376,-75 135,0 259,25 373,77 115,51 214,121 297,208 84,88 148,191 194,308 45,117 68,242 68,374l0 9zm707 -9l0 -9c0,-220 -40,-426 -121,-618 -80,-191 -193,-359 -338,-501 -145,-142 -317,-255 -516,-338 -200,-84 -418,-125 -655,-125 -238,0 -457,41 -658,125 -200,83 -373,198 -518,343 -145,145 -259,313 -341,505 -82,192 -123,398 -123,618l0 9c0,219 40,425 121,617 81,192 193,359 338,501 145,142 318,255 517,339 199,83 418,125 655,125 237,0 456,-42 657,-125 201,-84 374,-198 519,-343 145,-145 258,-314 340,-506 82,-192 123,-397 123,-617zm-3903 1538l0 -3077 -677 0 0 3077 677 0zm-1226 -2452l0 -625 -2549 0 0 625 936 0 0 2452 677 0 0 -2452 936 0zm-4035 1164l-818 0 409 -997 409 997zm1231 1288l-1319 -3099 -624 0 -1319 3099 690 0 282 -690 1301 0 281 690 708 0zm-3539 -497l-430 -435c-121,112 -241,200 -363,264 -122,65 -270,97 -446,97 -132,0 -253,-26 -363,-77 -110,-51 -203,-121 -281,-209 -78,-88 -138,-190 -182,-308 -44,-117 -66,-241 -66,-373l0 -9c0,-132 22,-256 66,-371 44,-116 105,-218 184,-306 79,-88 174,-157 284,-206 110,-50 229,-75 358,-75 155,0 295,31 420,92 124,62 247,147 367,255l430 -497c-70,-70 -146,-134 -228,-193 -82,-59 -172,-108 -268,-149 -97,-41 -205,-74 -323,-97 -119,-24 -250,-35 -394,-35 -237,0 -454,41 -650,125 -196,83 -365,198 -506,343 -140,145 -250,313 -329,505 -79,192 -119,398 -119,618l0 9c0,219 40,426 119,619 79,194 189,361 329,504 141,142 308,254 501,336 194,82 403,123 629,123 149,0 284,-13 404,-37 120,-25 231,-62 332,-110 101,-49 194,-107 279,-174 85,-67 167,-144 246,-229zm-3393 -843l0 -1737 -677 0 0 1763c0,246 -58,431 -175,554 -118,123 -280,184 -488,184 -208,0 -371,-63 -488,-191 -117,-127 -176,-317 -176,-569l0 -1741 -677 0 0 1759c0,454 119,795 356,1024 237,228 563,342 976,342 205,0 391,-28 558,-85 167,-57 309,-144 426,-260 118,-115 208,-260 271,-432 63,-173 94,-377 94,-611zm-3942 -189c0,137 -23,262 -69,373 -45,112 -108,208 -188,290 -81,82 -179,145 -293,189 -114,44 -240,66 -378,66l-523 0 0 -1855 523 0c138,0 264,23 378,69 114,45 212,109 293,191 80,82 143,180 188,294 46,114 69,239 69,374l0 9zm707 -9l0 -9c0,-217 -39,-418 -118,-604 -79,-186 -192,-348 -337,-486 -145,-138 -318,-245 -518,-323 -201,-78 -422,-117 -662,-117l-1200 0 0 3077 1200 0c240,0 461,-39 662,-119 200,-79 373,-187 518,-325 145,-137 258,-300 337,-488 79,-187 118,-389 118,-606zm-3441 1538l0 -602 -1671 0 0 -646 1451 0 0 -602 -1451 0 0 -624 1649 0 0 -603 -2317 0 0 3077 2339 0z"/>
 </g>
</svg>
